<svg fill="none" height="40" viewBox="0 0 199 40" width="199" xmlns="http://www.w3.org/2000/svg" xmlns:xlink="http://www.w3.org/1999/xlink"><mask id="a" fill="#000" height="37" maskUnits="userSpaceOnUse" width="76" x="2.26648" y="2.3591"><path d="m2.26648 2.3591h76v37h-76z" fill="#fff"/><path clip-rule="evenodd" d="m17.8692 14.1569-7.5702 10.6101 8.1605-.8978v5.431l-15.19302 1.5345v-4.3639l7.39032-10.4608-7.20346.8564v-5.2886l14.41586-1.89324zm49.6507 4.4765c1.2455-.4385 2.187-1.2448 2.8222-2.4181.6421-1.2047.789-2.4249.4387-3.6594-.3534-1.2459-1.1031-2.1495-2.2465-2.71125-1.122-.54059-2.3036-.58177-3.5439-.12528-1.2357.45483-2.1676 1.26993-2.7982 2.44553-.6227 1.1947-.759 2.404-.4107 3.632.345 1.2167 1.0777 2.1071 2.2 2.6734 1.1188.5446 2.2978.6001 3.5384.1631zm-6.8477-13.30432c2.4065-1.71014 5.0288-2.31051 7.8652-1.7868 2.861.5383 5.0867 2.05767 6.6631 4.55496 1.5701 2.48756 2.0248 5.21536 1.3673 8.16946-.6595 2.9243-2.2252 5.1994-4.6826 6.8295-2.4456 1.6212-5.0538 2.1343-7.8285 1.5519-2.7635-.5883-4.8985-2.0851-6.4176-4.4923-1.5255-2.4172-2.0027-5.0592-1.4289-7.9401.5843-2.88826 2.067-5.18476 4.462-6.8869zm-26.4903 2.27365v10.15197c0 1.2522-.4085 2.3688-1.2233 3.3493-.8018.9759-1.7713 1.5257-2.9063 1.6507-1.131.1241-2.0951-.2097-2.8945-1-.7975-.7883-1.1952-1.7991-1.1952-3.0344v-10.01751l-5.0983.68188v9.93513c0 2.7235.8831 4.9674 2.6582 6.7393 1.7852 1.7599 3.9592 2.5148 6.5298 2.2556 1.8905-.1905 3.2693-.8489 4.1296-1.9778v.7019c0 1.2516-.4085 2.3625-1.2233 3.3302-.8018.9639-1.7713 1.4987-2.9063 1.6063 0 0-3.0079.3793-5.0188-1.7808l-3.1649 2.7295-1.0199.8799s3.1939 3.7655 8.2291 3.7798l.0032-.0057c.3193.0068.6418.0034.9713-.0249 2.5708-.22 4.7873-1.4044 6.6414-3.5633 1.8651-2.1481 2.8077-4.6385 2.819-7.4602v-19.63993zm20.3977 2.1882v-4.81725s-3.504.03747-5.3349 1.20217h.0003c-.2657.14949-.5158.32443-.7469.52228l.0136-.92386-5.2779.69561v20.48322l4.9693-.4305.164-11.0286c.1012-1.2891.8495-5.22 6.2125-5.70307z" fill="#000" fill-rule="evenodd"/></mask><mask id="b" fill="#000" height="20" maskUnits="userSpaceOnUse" width="91" x="108.397" y="1.22223"><path d="m108.397 1.22223h91v20h-91z" fill="#fff"/><path clip-rule="evenodd" d="m136.043 7.44128h1.663v7.30982h-1.663v-3.1016h-2.791v3.1016h-1.663v-7.30982h1.663v2.79492h2.791zm5.543 3.64952c-.005.3281.04.6551.133.9702.089.2888.217.5365.384.7428.166.2064.371.3683.612.48.242.1118.512.1695.832.1695.305 0 .581-.0635.825-.1695.241-.1092.453-.2737.618-.48.166-.207.294-.4546.383-.7428.09-.2883.133-.6121.133-.9715 0-.3593-.044-.6838-.133-.9758-.078-.27182-.208-.52615-.383-.74925-.165-.20587-.377-.37012-.618-.47936-.26-.11555-.541-.1732-.826-.16889-.313 0-.59.05714-.831.17397-.239.11359-.448.27946-.612.48508-.167.20761-.295.45714-.384.74925-.09.292-.133.6133-.133.965zm5.636 0c0 .6254-.095 1.1759-.282 1.6508-.186.4749-.446.8717-.772 1.1917-.331.3228-.729.5694-1.167.7226-.467.1645-.959.2466-1.454.2425-.487.0032-.97-.0789-1.428-.2425-.438-.1556-.837-.4019-1.172-.7226-.334-.32-.596-.7174-.788-1.1917s-.288-1.0254-.288-1.6508.099-1.17651.298-1.65079c.199-.47429.467-.87365.805-1.19746.334-.32177.734-.56972 1.172-.72762.448-.16289.922-.24523 1.4-.24318.512 0 .981.08127 1.428.24318.448.1619.832.40444 1.172.72762.34.32317.597.72254.789 1.19746.191.47492.287 1.02479.287 1.65079zm4.179 2.4051c.234 0 .428-.0191.58-.0584.153-.0394.275-.0908.368-.1588.086-.0586.153-.1409.192-.2368.035-.0908.053-.193.053-.3047 0-.2394-.114-.4445-.341-.5969s-.618-.3289-1.171-.5117c-.246-.086-.488-.1828-.725-.2902-.236-.1051-.454-.2437-.65-.4114-.194-.1683-.353-.3725-.469-.6013-.128-.2349-.181-.52188-.181-.85966s.064-.63492.192-.91238.309-.50159.544-.6908c.235-.1892.512-.33523.85-.44444.367-.10627.748-.15763 1.13-.15238.498 0 .927.0527 1.289.15873s.661.22222.896.34794l-.48 1.29777c-.221-.11142-.451-.20484-.687-.27936-.252-.08127-.556-.12191-.911-.12191-.397 0-.684.05524-.857.16381-.172.10857-.261.27619-.261.50159 0 .12698.032.24635.096.33778.073.09971.165.18391.272.24762.117.07365.252.14099.405.20059l.505.1905 1.002.4172c.284.1371.52.2971.709.48.186.1807.33.4004.42.6431.092.2464.139.5448.139.8965 0 .6819-.242 1.2115-.725 1.5873-.483.3759-1.211.5715-2.184.5715-.296.002-.591-.0176-.884-.0584-.235-.0334-.468-.0811-.698-.1429-.178-.0477-.353-.1075-.522-.179-.126-.0536-.248-.1136-.368-.1797l.469-1.308c.22.127.491.2273.815.3219s.719.1429 1.188.1429zm10.231-6.05462v1.39682h-2.221v5.9067h-1.662v-5.90035h-2.239v-1.40317zm1.846 7.30982h1.663v-7.30982h-1.663zm9.101 0c-.482-.8464-.997-1.6735-1.545-2.4793-.545-.803-1.135-1.5742-1.769-2.30989v4.78919h-1.64v-7.30982h1.352c.272.27307.532.55801.778.85397l.869 1.08126.879 1.19179.82 1.1873v-4.31432h1.651v7.30982h-1.394zm7.483-6.04443c-.768 0-1.334.2127-1.678.6381-.345.4254-.516 1.00763-.516 1.74603 0 .3581.042.6838.127.9759.086.292.213.5428.384.7536.171.2116.39.3798.64.4908.256.1162.554.174.895.174l.473-.0108c.132-.0064.247-.021.346-.0419v-2.5422h1.663v3.619c-.2.0775-.518.1587-.96.254-.441.0952-.983.132-1.631.132-.553 0-1.056-.085-1.507-.2539-.435-.1588-.83-.411-1.156-.7384-.32-.3175-.566-.7207-.74-1.1918s-.261-1.0159-.261-1.614c0-.612.096-1.15297.287-1.62535.192-.47238.448-.86984.789-1.19682.335-.32769.736-.5811 1.177-.74349.462-.17101.951-.25707 1.443-.25397.564-.00415 1.126.0724 1.668.2273.274.07693.537.18853.783.33206l-.479 1.31873c-.251-.12852-.513-.23271-.783-.31111-.314-.09054-.638-.13504-.965-.13206zm4.658 6.05013v-7.31552h4.986v1.38158h-3.324v1.43494h2.951v1.3498h-2.951v1.7613h3.569v1.3822zm9.496-5.99171-.325.01079-.272.02095v1.98287h.469c.625 0 1.072-.0762 1.343-.2318.27-.1555.405-.419.405-.79107 0-.35873-.137-.61333-.41-.76508-.272-.15174-.676-.22666-1.208-.22666zm-.094-1.39683c1.108 0 1.957.19556 2.545.58603.589.39048.885.99683.885 1.81969 0 .51302-.119.93012-.357 1.24952s-.581.5714-1.028.7543l.468.6286.486.7384.463.8012.416.8178h-1.859l-.411-.7282c-.267-.4706-.555-.9299-.861-1.3765-.133-.1949-.276-.3833-.428-.5645h-.82v2.6692h-1.662v-7.21776c.362-.06349.737-.11937 1.124-.1473.346-.02649.692-.04046 1.039-.04191zm-84.725 3.09204v-8.23807l4.187 2.21714v3.71175l5.543.00254 4.255 2.30664zm10.864-2.98855v-5.24952l4.294 2.1619v5.56826zm0 9.91435v-3.5258l-5.586-.0038c.005.0254-4.326-2.3428-4.326-2.3428l14.211.066v8.2381l-4.299-2.2775zm-10.864.1542v-5.3828l4.187 2.4216v5.1238z" fill="#000" fill-rule="evenodd"/></mask><path clip-rule="evenodd" d="m17.8692 14.1569-7.5702 10.6101 8.1605-.8978v5.431l-15.19302 1.5345v-4.3639l7.39032-10.4608-7.20346.8564v-5.2886l14.41586-1.89324zm49.6507 4.4765c1.2455-.4385 2.187-1.2448 2.8222-2.4181.6421-1.2047.789-2.4249.4387-3.6594-.3534-1.2459-1.1031-2.1495-2.2465-2.71125-1.122-.54059-2.3036-.58177-3.5439-.12528-1.2357.45483-2.1676 1.26993-2.7982 2.44553-.6227 1.1947-.759 2.404-.4107 3.632.345 1.2167 1.0777 2.1071 2.2 2.6734 1.1188.5446 2.2978.6001 3.5384.1631zm-6.8477-13.30432c2.4065-1.71014 5.0288-2.31051 7.8652-1.7868 2.861.5383 5.0867 2.05767 6.6631 4.55496 1.5701 2.48756 2.0248 5.21536 1.3673 8.16946-.6595 2.9243-2.2252 5.1994-4.6826 6.8295-2.4456 1.6212-5.0538 2.1343-7.8285 1.5519-2.7635-.5883-4.8985-2.0851-6.4176-4.4923-1.5255-2.4172-2.0027-5.0592-1.4289-7.9401.5843-2.88826 2.067-5.18476 4.462-6.8869zm-26.4903 2.27365v10.15197c0 1.2522-.4085 2.3688-1.2233 3.3493-.8018.9759-1.7713 1.5257-2.9063 1.6507-1.131.1241-2.0951-.2097-2.8945-1-.7975-.7883-1.1952-1.7991-1.1952-3.0344v-10.01751l-5.0983.68188v9.93513c0 2.7235.8831 4.9674 2.6582 6.7393 1.7852 1.7599 3.9592 2.5148 6.5298 2.2556 1.8905-.1905 3.2693-.8489 4.1296-1.9778v.7019c0 1.2516-.4085 2.3625-1.2233 3.3302-.8018.9639-1.7713 1.4987-2.9063 1.6063 0 0-3.0079.3793-5.0188-1.7808l-3.1649 2.7295-1.0199.8799s3.1939 3.7655 8.2291 3.7798l.0032-.0057c.3193.0068.6418.0034.9713-.0249 2.5708-.22 4.7873-1.4044 6.6414-3.5633 1.8651-2.1481 2.8077-4.6385 2.819-7.4602v-19.63993zm20.3977 2.1882v-4.81725s-3.504.03747-5.3349 1.20217h.0003c-.2657.14949-.5158.32443-.7469.52228l.0136-.92386-5.2779.69561v20.48322l4.9693-.4305.164-11.0286c.1012-1.2891.8495-5.22 6.2125-5.70307z" fill="#2f1c6a" fill-rule="evenodd"/><path d="m17.8692 14.1569.814.5808c.121-.1695.186-.3726.186-.5808zm-7.5702 10.6101-.81407-.5808c-.22899.3209-.24803.7465-.0486 1.0866s.58007.5313.97197.4882zm8.1605-.8978h1c0-.2843-.1209-.5551-.3326-.7448s-.4942-.2803-.7767-.2492zm0 5.431.1005.995c.5108-.0516.8995-.4816.8995-.995zm-15.19302 1.5345h-1c0 .2827.11966.5522.32937.7418.2097.1896.48985.2816.77112.2532zm0-4.3639-.81674-.577c-.11924.1688-.18326.3704-.18326.577zm7.39032-10.4608.8167.577c.2279-.3226.2446-.7492.0425-1.0886s-.585-.528-.9773-.4814zm-7.20346.8564h-1c0 .2858.12227.5579.33594.7477.21367.1897.49833.279.78211.2453zm0-5.2886-.13021-.9915c-.49768.0653-.86979.4895-.86979.9915zm14.41586-1.89324h1c0-.28791-.1241-.56186-.3406-.75173-.2164-.18987-.5042-.27724-.7896-.23975zm52.4729 6.53074.8794.4761.003-.0057zm.4387-3.6594-.962.2729v.0001zm-2.2465-2.71125.4409-.89755-.0069-.00333zm-3.5439-.12528.3454.93843zm-2.7982 2.44553-.8813-.4727-.0055.0105zm-.4107 3.632.962-.2729zm2.2 2.6734-.4505.8928c.0042.0022.0085.0043.0128.0064zm-3.3093-13.14122h-1c0 .37416.2088.71701.5413.88862.3325.1716.7329.14326 1.0379-.07347zm7.8652-1.7868.1849-.98276-.0033-.00062zm6.6631 4.55496.8457-.53373-.0001-.00006zm1.3673 8.16946.9755.22.0006-.0027zm-4.6826 6.8295.5525.8334.0002-.0001zm-7.8285 1.5519-.2083.9781.0029.0006zm-6.4176-4.4923.8457-.5337zm-1.4289-7.9401-.9801-.1982-.0006.0029zm4.462-6.8869h1c0-.37416-.2089-.71702-.5414-.88863-.3325-.1716-.733-.14323-1.0379.07352zm-27.7136 15.7752-.7691-.6391-.0035.0043zm-2.9063 1.6507.1091.994h.0003zm-2.8945-1 .703-.7112zm-1.1952-13.05191h1c0-.28833-.1245-.56263-.3414-.75252-.217-.18989-.5054-.27688-.7912-.23866zm-5.0983.68188-.1326-.99117c-.4966.06642-.8674.49013-.8674.99117zm2.6582 16.67443-.7065.7078.0045.0044zm6.5298 2.2556-.1003-.9949zm4.1296-1.9778h1c0-.4291-.2737-.8103-.6802-.9475s-.8552.0001-1.1152.3414zm-1.2233 4.0321-.7649-.6442-.0039.0047zm-2.9063 1.6063-.0944-.9956c-.0102.001-.0205.0022-.0307.0034zm-5.0188-1.7808.732-.6814c-.3663-.3934-.978-.4269-1.3851-.0759zm-3.1649 2.7295-.6531-.7572h-.0001zm-1.0199.8799-.6532-.7572c-.4157.3586-.4646.9853-.1094 1.404zm8.2291 3.7798-.0028 1c.3639.001.6997-.1958.8767-.5139zm.0032-.0057.0215-.9998c-.3706-.008-.7152.1897-.8954.5136zm.9713-.0249-.0853-.9964-.0004.0001zm6.6414-3.5633-.7551-.6557-.0035.0042zm2.819-7.4602 1 .004v-.004zm0-19.63993h1c0-.28834-.1244-.56264-.3414-.75252-.217-.18989-.5054-.27688-.7912-.23865zm15.0669-1.91599h1c0-.26707-.1069-.52304-.2967-.71087-.1899-.18784-.447-.29193-.714-.28907zm-5.3349 1.20217-.5367-.84375c-.3752.23864-.5477.69634-.4235 1.12325.1243.42692.5155.7205.9602.7205zm.0003 0 .4904.87148c.3962-.22298.5922-.68517.4769-1.12498-.1152-.4398-.5127-.7465-.9673-.7465zm-.7469.52228-.9999-.01471c-.0057.39307.2193.75306.5752.92003s.7766.10994 1.0752-.14576zm.0136-.92386.9999.01471c.0043-.29053-.118-.56856-.3351-.76173-.217-.19317-.5074-.28237-.7954-.24441zm-5.2779.69561-.1306-.99142c-.4975.06556-.8694.48965-.8694.99142zm0 20.48322h-1c0 .2802.1176.5475.3241.7369s.4831.2835.7622.2593zm4.9693-.4305.0863.9963c.5112-.0443.906-.4684.9136-.9814zm.164-11.0286-.9969-.0783c-.0017.0211-.0027.0423-.003.0634zm-31.312-1.9179-7.57017 10.6101 1.62807 1.1616 7.5702-10.6101zm-6.6468 12.1849 8.1606-.8978-.2187-1.988-8.1606.8978zm7.0512-1.8918v5.431h2v-5.431zm.8995 4.4361-15.19301 1.5345.20098 1.9899 15.19303-1.5345zm-14.09252 2.5294v-4.3639h-2v4.3639zm-.18326-3.7868 7.39028-10.4609-1.63347-1.154-7.39029 10.4608zm6.45548-12.0309-7.20341.8564.2361 1.986 7.20341-.8564zm-6.08536 1.8494v-5.2886h-2v5.2886zm-.86979-4.2971 14.41585-1.8933-.2604-1.98292-14.41587 1.89322zm13.28565-2.88474v4.47234h2v-4.47234zm50.9827 9.89204c1.4821-.5217 2.6175-1.496 3.3696-2.8852l-1.7588-.9522c-.5183.9574-1.2659 1.5957-2.2749 1.9509zm3.3726-2.8909c.755-1.4164.9442-2.9021.5184-4.4028l-1.9241.546c.2748.9682.1701 1.9229-.3592 2.916zm.5184-4.4027c-.4296-1.5141-1.3658-2.64713-2.7677-3.33587l-.8819 1.79507c.8849.4347 1.4481 1.1089 1.7255 2.0866zm-2.7746-3.33923c-1.3826-.66617-2.8467-.70633-4.3233-.16285l.6908 1.87688c1.004-.3695 1.9031-.3273 2.7644.0877zm-4.3233-.16285c-1.469.54064-2.5897 1.52368-3.334 2.91128l1.7624.9454c.5169-.9635 1.26-1.6108 2.2624-1.9798zm-3.3396 2.92178c-.7337 1.4077-.9079 2.8792-.486 4.367l1.9241-.5457c-.2745-.968-.1763-1.9151.3355-2.8969zm-.486 4.367c.4209 1.4839 1.3378 2.6002 2.7116 3.2934l.901-1.7855c-.8708-.4395-1.4192-1.104-1.6885-2.0536zm2.7244 3.2998c1.3732.6684 2.8305.7277 4.3083.2071l-.6645-1.8864c-1.0034.3535-1.904.3018-2.7684-.119zm-2.2924-13.22527c2.1935-1.55873 4.5427-2.09157 7.1044-1.61857l.3632-1.96676c-3.1111-.57443-6.0065.09348-8.6261 1.95504zm7.1011-1.61919c2.5842.48622 4.5723 1.84041 6.0024 4.10599l1.6912-1.06758c-1.7226-2.72899-4.186-4.41355-7.3238-5.00392zm6.0024 4.10594c1.4242 2.25662 1.8389 4.71312 1.2368 7.41852l1.9522.4345c.7128-3.2028.2181-6.202-1.4977-8.92049zm1.2374 7.41572c-.6035 2.6759-2.0195 4.73-4.2599 6.2161l1.1055 1.6667c2.6745-1.774 4.3899-4.27 5.1054-7.4428zm-4.2597 6.216c-2.2299 1.4782-4.5662 1.9323-7.0705 1.4068l-.4108 1.9573c3.0452.6391 5.9251.067 8.5864-1.6972zm-7.0677 1.4074c-2.4968-.5316-4.4032-1.8662-5.7801-4.048l-1.6914 1.0674c1.6614 2.6326 4.0249 4.2916 7.055 4.9367zm-5.7801-4.048c-1.385-2.1945-1.819-4.5745-1.2938-7.211l-1.9615-.3907c-.6225 3.1251-.1021 6.0292 1.5639 8.6691zm-1.2944-7.2081c.5344-2.6417 1.8753-4.71663 4.0611-6.27009l-1.1586-1.63022c-2.6042 1.85082-4.2286 4.36889-4.8628 7.50381zm2.4818-7.0852v.00028h2v-.00028zm-26.4903 2.27393v10.15197h2v-10.15197zm0 10.15197c0 1.0136-.3235 1.9053-.9924 2.7102l1.5382 1.2782c.9608-1.1561 1.4542-2.4977 1.4542-3.9884zm-.9959 2.7145c-.6548.797-1.3955 1.1981-2.2432 1.2915l.2189 1.988c1.4224-.1567 2.6208-.855 3.5696-2.0099zm-2.2428 1.2914c-.835.0917-1.4997-.141-2.0824-.7171l-1.406 1.4224c1.0162 1.0045 2.2796 1.4394 3.7066 1.2828zm-2.0824-.7171c-.5869-.5801-.8982-1.3248-.8982-2.3232h-2c0 1.4722.4841 2.7492 1.4922 3.7456zm-.8982-2.3232v-10.01751h-2v10.01751zm-1.1326-11.00869-5.0983.68189.2652 1.9823 5.0983-.68184zm-5.9657 1.67306v9.93513h2v-9.93513zm0 9.93513c0 2.963.971 5.4699 2.9517 7.4471l1.413-1.4155c-1.5696-1.5667-2.3647-3.5476-2.3647-6.0316zm2.9562 7.4515c2.0034 1.975 4.474 2.8265 7.3321 2.5384l-.2006-1.9899c-2.2831.2301-4.1604-.428-5.7275-1.9728zm7.332 2.5384c2.0673-.2083 3.7447-.9493 4.8248-2.3668l-1.5908-1.2121c-.6405.8404-1.7208 1.4163-3.4345 1.589zm3.0294-2.9728v.7019h2v-.7019zm0 .7019c0 1.0129-.3232 1.8964-.9882 2.686l1.5299 1.2883c.9646-1.1456 1.4583-2.4839 1.4583-3.9743zm-.9921 2.6907c-.6507.7823-1.3865 1.1701-2.2319 1.2502l.1887 1.9911c1.4247-.135 2.628-.8169 3.5808-1.9623zm-2.1375 2.2458c-.1251-.9922-.1248-.9922-.1244-.9922.0001-.0001.0005-.0001.0007-.0001.0004-.0001.0008-.0001.0011-.0002.0007-.0001.0012-.0001.0015-.0002.0006 0 .0005 0-.0002.0001-.0015.0001-.0057.0006-.0124.0013-.0136.0013-.0375.0035-.0707.0059-.0666.0048-.17.0101-.3028.0109-.2669.0016-.6447-.0157-1.0761-.091-.8688-.1517-1.894-.527-2.7035-1.3967l-1.4639 1.3628c1.2013 1.2904 2.6855 1.8054 3.8234 2.0041.5719.0999 1.0717.1229 1.4316.1208.1806-.0011.3279-.0084.4337-.016.0529-.0038.0957-.0076.1271-.0107.0158-.0016.0287-.003.0387-.0041.0051-.0006.0093-.0011.0129-.0015.0018-.0003.0033-.0004.0047-.0006.0007-.0001.0014-.0002.002-.0003.0003 0 .0007 0 .0009-.0001.0004 0 .0008-.0001-.1243-.9922zm-5.6719-2.5381-3.1649 2.7296 1.3062 1.5145 3.1649-2.7295zm-3.165 2.7296-1.0199.8799 1.3064 1.5143 1.0199-.8798zm-.3667 1.6371c-.7626.6468-.7624.6471-.7621.6474.0001.0001.0004.0005.0006.0007.0004.0005.0009.0011.0014.0017.0011.0012.0023.0027.0038.0044.0029.0034.0066.0076.011.0128.009.0103.0211.0241.0364.0412.0304.0341.0734.0814.1286.1398.1102.1169.2696.279.4753.4713.4108.3838 1.0111.8916 1.7802 1.3996 1.5337 1.0131 3.7799 2.053 6.5511 2.0609l.0056-2c-2.2641-.0064-4.1324-.8565-5.4544-1.7297-.6588-.4352-1.1717-.8696-1.5171-1.1923-.1724-.161-.3019-.2931-.386-.3823-.042-.0445-.0725-.0782-.0913-.0992-.0094-.0105-.0158-.0178-.0193-.0218-.0017-.002-.0026-.0031-.0028-.0033-.0001-.0001-.0001 0 .0002.0003.0001.0001.0003.0003.0006.0006.0001.0002.0003.0004.0003.0005.0003.0002.0005.0005-.7621.6474zm9.103 4.2659.0032-.0057-1.7478-.9723-.0032.0057zm-.8922.5079c.3401.0073.701.0041 1.0784-.0283l-.1713-1.9926c-.2815.0241-.5656.0278-.8641.0214zm1.078-.0283c2.8581-.2445 5.3081-1.5714 7.3148-3.9081l-1.5172-1.303c-1.7015 1.9811-3.6845 3.023-5.9681 3.2184zm7.3113-3.904c2.0203-2.3269 3.0517-5.0479 3.0639-8.1118l-2-.008c-.0103 2.5794-.8643 4.8393-2.5741 6.8086zm3.0639-8.1158v-19.63993h-2v19.63993zm-1.1326-20.6311-5.3308.71306.2651 1.98234 5.3309-.71306zm16.1995 3.89243v-4.81725h-2v4.81725zm-1-4.81725c-.0107-.99994-.0109-.99994-.0111-.99994-.0001.00001-.0003.00001-.0004.00001-.0003 0-.0007.00001-.0011.00001-.0009.00001-.002.00003-.0032.00004-.0026.00004-.006.00009-.0102.00015-.0085.00014-.0203.00035-.0352.00067-.0299.00064-.0723.00171-.1261.0035-.1076.00357-.2609.00999-.4495.02146-.3764.02288-.8985.06615-1.483.14812-1.1279.15819-2.6445.48002-3.7518 1.1844l1.0734 1.6875c.7237-.46032 1.8745-.73957 2.9562-.89129.5205-.07299.9887-.11188 1.3266-.13242.1684-.01024.3032-.01584.3944-.01887.0456-.00152.0802-.00238.1026-.00286.0112-.00024.0193-.00038.0242-.00046.0024-.00004.0041-.00006.0049-.00007.0004-.00001.0006-.00001.0006-.00001s0 0-.0002 0c0 0-.0001 0-.0002 0s-.0002.00001-.0109-.99994zm-5.3349 2.20217h.0003v-2h-.0003zm-.4902-1.87148c-.3223.18142-.6261.39382-.9068.6342l1.3009 1.51912c.1814-.15533.3779-.2928.5868-.41036zm.7435 1.40848.0136-.92387-1.9998-.02942-.0136.92386zm-1.1169-1.93001-5.2779.69562.2613 1.98285 5.2779-.69561zm-6.1473 1.68704v20.48322h2v-20.48322zm1.0863 21.47942 4.9693-.4304-.1726-1.9926-4.9693.4305zm5.8829-1.4118.164-11.0286-1.9998-.0298-.164 11.0286zm.161-10.9652c.0433-.5514.227-1.6502.9468-2.6464.69-.955 1.947-1.9218 4.3585-2.139l-.1794-1.99194c-2.9515.26587-4.7501 1.50614-5.8003 2.95964-1.0203 1.4122-1.2615 2.9234-1.3194 3.6611z" fill="#f5f5f5" mask="url(#a)"/><path d="m89.5683 14.5556v-6.84449h3.0702c.7887 0 1.3852.20208 1.7893.60622.3064.30638.4596.68445.4596 1.13423v.01955c0 .67789-.326 1.18639-.9778 1.52529.9061.3064 1.3591.8605 1.3591 1.6623v.0195c0 .5997-.2281 1.0625-.6844 1.3885-.4563.3259-1.0723.4889-1.848.4889zm4.1164-4.88893v-.01956c0-.27378-.1043-.48563-.3129-.63555-.2086-.15645-.5052-.23467-.8898-.23467h-1.7306v1.81871h1.6426c.3977 0 .7106-.0783.9387-.2347.2347-.1565.352-.38786.352-.69423zm.3813 2.86493c0-.6128-.4693-.9192-1.408-.9192h-1.9066v1.8774h1.9946c.4107 0 .7334-.0782.968-.2347.2347-.163.352-.3976.352-.704zm4.2769 2.024v-2.6987l-2.7182-4.14579h1.4275l1.9067 3.02129 1.9361-3.02129h1.379l-2.7187 4.11649v2.728z" fill="#2f1c6a"/><g clip-rule="evenodd" fill-rule="evenodd"><path d="m136.043 7.44128h1.663v7.30982h-1.663v-3.1016h-2.791v3.1016h-1.663v-7.30982h1.663v2.79492h2.791zm5.543 3.64952c-.005.3281.04.6551.133.9702.089.2888.217.5365.384.7428.166.2064.371.3683.612.48.242.1118.512.1695.832.1695.305 0 .581-.0635.825-.1695.241-.1092.453-.2737.618-.48.166-.207.294-.4546.383-.7428.09-.2883.133-.6121.133-.9715 0-.3593-.044-.6838-.133-.9758-.078-.27182-.208-.52615-.383-.74925-.165-.20587-.377-.37012-.618-.47936-.26-.11555-.541-.1732-.826-.16889-.313 0-.59.05714-.831.17397-.239.11359-.448.27946-.612.48508-.167.20761-.295.45714-.384.74925-.09.292-.133.6133-.133.965zm5.636 0c0 .6254-.095 1.1759-.282 1.6508-.186.4749-.446.8717-.772 1.1917-.331.3228-.729.5694-1.167.7226-.467.1645-.959.2466-1.454.2425-.487.0032-.97-.0789-1.428-.2425-.438-.1556-.837-.4019-1.172-.7226-.334-.32-.596-.7174-.788-1.1917s-.288-1.0254-.288-1.6508.099-1.17651.298-1.65079c.199-.47429.467-.87365.805-1.19746.334-.32177.734-.56972 1.172-.72762.448-.16289.922-.24523 1.4-.24318.512 0 .981.08127 1.428.24318.448.1619.832.40444 1.172.72762.34.32317.597.72254.789 1.19746.191.47492.287 1.02479.287 1.65079zm4.179 2.4051c.234 0 .428-.0191.58-.0584.153-.0394.275-.0908.368-.1588.086-.0586.153-.1409.192-.2368.035-.0908.053-.193.053-.3047 0-.2394-.114-.4445-.341-.5969s-.618-.3289-1.171-.5117c-.246-.086-.488-.1828-.725-.2902-.236-.1051-.454-.2437-.65-.4114-.194-.1683-.353-.3725-.469-.6013-.128-.2349-.181-.52188-.181-.85966s.064-.63492.192-.91238.309-.50159.544-.6908c.235-.1892.512-.33523.85-.44444.367-.10627.748-.15763 1.13-.15238.498 0 .927.0527 1.289.15873s.661.22222.896.34794l-.48 1.29777c-.221-.11142-.451-.20484-.687-.27936-.252-.08127-.556-.12191-.911-.12191-.397 0-.684.05524-.857.16381-.172.10857-.261.27619-.261.50159 0 .12698.032.24635.096.33778.073.09971.165.18391.272.24762.117.07365.252.14099.405.20059l.505.1905 1.002.4172c.284.1371.52.2971.709.48.186.1807.33.4004.42.6431.092.2464.139.5448.139.8965 0 .6819-.242 1.2115-.725 1.5873-.483.3759-1.211.5715-2.184.5715-.296.002-.591-.0176-.884-.0584-.235-.0334-.468-.0811-.698-.1429-.178-.0477-.353-.1075-.522-.179-.126-.0536-.248-.1136-.368-.1797l.469-1.308c.22.127.491.2273.815.3219s.719.1429 1.188.1429zm10.231-6.05462v1.39682h-2.221v5.9067h-1.662v-5.90035h-2.239v-1.40317zm1.846 7.30982h1.663v-7.30982h-1.663zm9.101 0c-.482-.8464-.997-1.6735-1.545-2.4793-.545-.803-1.135-1.5742-1.769-2.30989v4.78919h-1.64v-7.30982h1.352c.272.27307.532.55801.778.85397l.869 1.08126.879 1.19179.82 1.1873v-4.31432h1.651v7.30982h-1.394zm7.483-6.04443c-.768 0-1.334.2127-1.678.6381-.345.4254-.516 1.00763-.516 1.74603 0 .3581.042.6838.127.9759.086.292.213.5428.384.7536.171.2116.39.3798.64.4908.256.1162.554.174.895.174l.473-.0108c.132-.0064.247-.021.346-.0419v-2.5422h1.663v3.619c-.2.0775-.518.1587-.96.254-.441.0952-.983.132-1.631.132-.553 0-1.056-.085-1.507-.2539-.435-.1588-.83-.411-1.156-.7384-.32-.3175-.566-.7207-.74-1.1918s-.261-1.0159-.261-1.614c0-.612.096-1.15297.287-1.62535.192-.47238.448-.86984.789-1.19682.335-.32769.736-.5811 1.177-.74349.462-.17101.951-.25707 1.443-.25397.564-.00415 1.126.0724 1.668.2273.274.07693.537.18853.783.33206l-.479 1.31873c-.251-.12852-.513-.23271-.783-.31111-.314-.09054-.638-.13504-.965-.13206zm4.658 6.05013v-7.31552h4.986v1.38158h-3.324v1.43494h2.951v1.3498h-2.951v1.7613h3.569v1.3822zm9.496-5.99171-.325.01079-.272.02095v1.98287h.469c.625 0 1.072-.0762 1.343-.2318.27-.1555.405-.419.405-.79107 0-.35873-.137-.61333-.41-.76508-.272-.15174-.676-.22666-1.208-.22666zm-.094-1.39683c1.108 0 1.957.19556 2.545.58603.589.39048.885.99683.885 1.81969 0 .51302-.119.93012-.357 1.24952s-.581.5714-1.028.7543l.468.6286.486.7384.463.8012.416.8178h-1.859l-.411-.7282c-.267-.4706-.555-.9299-.861-1.3765-.133-.1949-.276-.3833-.428-.5645h-.82v2.6692h-1.662v-7.21776c.362-.06349.737-.11937 1.124-.1473.346-.02649.692-.04046 1.039-.04191zm-84.725 3.09204v-8.23807l4.187 2.21714v3.71175l5.543.00254 4.255 2.30664zm10.864-2.98855v-5.24952l4.294 2.1619v5.56826zm0 9.91435v-3.5258l-5.586-.0038c.005.0254-4.326-2.3428-4.326-2.3428l14.211.066v8.2381l-4.299-2.2775zm-10.864.1542v-5.3828l4.187 2.4216v5.1238z" fill="#2f1c6a"/><path d="m136.043 7.44128h1.663v7.30982h-1.663v-3.1016h-2.791v3.1016h-1.663v-7.30982h1.663v2.79492h2.791zm5.543 3.64952c-.005.3281.04.6551.133.9702.089.2888.217.5365.384.7428.166.2064.371.3683.612.48.242.1118.512.1695.832.1695.305 0 .581-.0635.825-.1695.241-.1092.453-.2737.618-.48.166-.207.294-.4546.383-.7428.09-.2883.133-.6121.133-.9715 0-.3593-.044-.6838-.133-.9758-.078-.27182-.208-.52615-.383-.74925-.165-.20587-.377-.37012-.618-.47936-.26-.11555-.541-.1732-.826-.16889-.313 0-.59.05714-.831.17397-.239.11359-.448.27946-.612.48508-.167.20761-.295.45714-.384.74925-.09.292-.133.6133-.133.965zm5.636 0c0 .6254-.095 1.1759-.282 1.6508-.186.4749-.446.8717-.772 1.1917-.331.3228-.729.5694-1.167.7226-.467.1645-.959.2466-1.454.2425-.487.0032-.97-.0789-1.428-.2425-.438-.1556-.837-.4019-1.172-.7226-.334-.32-.596-.7174-.788-1.1917s-.288-1.0254-.288-1.6508.099-1.17651.298-1.65079c.199-.47429.467-.87365.805-1.19746.334-.32177.734-.56972 1.172-.72762.448-.16289.922-.24523 1.4-.24318.512 0 .981.08127 1.428.24318.448.1619.832.40444 1.172.72762.34.32317.597.72254.789 1.19746.191.47492.287 1.02479.287 1.65079zm4.179 2.4051c.234 0 .428-.0191.58-.0584.153-.0394.275-.0908.368-.1588.086-.0586.153-.1409.192-.2368.035-.0908.053-.193.053-.3047 0-.2394-.114-.4445-.341-.5969s-.618-.3289-1.171-.5117c-.246-.086-.488-.1828-.725-.2902-.236-.1051-.454-.2437-.65-.4114-.194-.1683-.353-.3725-.469-.6013-.128-.2349-.181-.52188-.181-.85966s.064-.63492.192-.91238.309-.50159.544-.6908c.235-.1892.512-.33523.85-.44444.367-.10627.748-.15763 1.13-.15238.498 0 .927.0527 1.289.15873s.661.22222.896.34794l-.48 1.29777c-.221-.11142-.451-.20484-.687-.27936-.252-.08127-.556-.12191-.911-.12191-.397 0-.684.05524-.857.16381-.172.10857-.261.27619-.261.50159 0 .12698.032.24635.096.33778.073.09971.165.18391.272.24762.117.07365.252.14099.405.20059l.505.1905 1.002.4172c.284.1371.52.2971.709.48.186.1807.33.4004.42.6431.092.2464.139.5448.139.8965 0 .6819-.242 1.2115-.725 1.5873-.483.3759-1.211.5715-2.184.5715-.296.002-.591-.0176-.884-.0584-.235-.0334-.468-.0811-.698-.1429-.178-.0477-.353-.1075-.522-.179-.126-.0536-.248-.1136-.368-.1797l.469-1.308c.22.127.491.2273.815.3219s.719.1429 1.188.1429zm10.231-6.05462v1.39682h-2.221v5.9067h-1.662v-5.90035h-2.239v-1.40317zm1.846 7.30982h1.663v-7.30982h-1.663zm9.101 0c-.482-.8464-.997-1.6735-1.545-2.4793-.545-.803-1.135-1.5742-1.769-2.30989v4.78919h-1.64v-7.30982h1.352c.272.27307.532.55801.778.85397l.869 1.08126.879 1.19179.82 1.1873v-4.31432h1.651v7.30982h-1.394zm7.483-6.04443c-.768 0-1.334.2127-1.678.6381-.345.4254-.516 1.00763-.516 1.74603 0 .3581.042.6838.127.9759.086.292.213.5428.384.7536.171.2116.39.3798.64.4908.256.1162.554.174.895.174l.473-.0108c.132-.0064.247-.021.346-.0419v-2.5422h1.663v3.619c-.2.0775-.518.1587-.96.254-.441.0952-.983.132-1.631.132-.553 0-1.056-.085-1.507-.2539-.435-.1588-.83-.411-1.156-.7384-.32-.3175-.566-.7207-.74-1.1918s-.261-1.0159-.261-1.614c0-.612.096-1.15297.287-1.62535.192-.47238.448-.86984.789-1.19682.335-.32769.736-.5811 1.177-.74349.462-.17101.951-.25707 1.443-.25397.564-.00415 1.126.0724 1.668.2273.274.07693.537.18853.783.33206l-.479 1.31873c-.251-.12852-.513-.23271-.783-.31111-.314-.09054-.638-.13504-.965-.13206zm4.658 6.05013v-7.31552h4.986v1.38158h-3.324v1.43494h2.951v1.3498h-2.951v1.7613h3.569v1.3822zm9.496-5.99171-.325.01079-.272.02095v1.98287h.469c.625 0 1.072-.0762 1.343-.2318.27-.1555.405-.419.405-.79107 0-.35873-.137-.61333-.41-.76508-.272-.15174-.676-.22666-1.208-.22666zm-.094-1.39683c1.108 0 1.957.19556 2.545.58603.589.39048.885.99683.885 1.81969 0 .51302-.119.93012-.357 1.24952s-.581.5714-1.028.7543l.468.6286.486.7384.463.8012.416.8178h-1.859l-.411-.7282c-.267-.4706-.555-.9299-.861-1.3765-.133-.1949-.276-.3833-.428-.5645h-.82v2.6692h-1.662v-7.21776c.362-.06349.737-.11937 1.124-.1473.346-.02649.692-.04046 1.039-.04191zm-84.725 3.09204v-8.23807l4.187 2.21714v3.71175l5.543.00254 4.255 2.30664zm10.864-2.98855v-5.24952l4.294 2.1619v5.56826zm0 9.91435v-3.5258l-5.586-.0038c.005.0254-4.326-2.3428-4.326-2.3428l14.211.066v8.2381l-4.299-2.2775zm-10.864.1542v-5.3828l4.187 2.4216v5.1238z" mask="url(#b)" stroke="#f5f5f5" stroke-linejoin="round" stroke-width="2"/></g></svg>