<svg fill="none" height="47" viewBox="0 0 100 47" width="100" xmlns="http://www.w3.org/2000/svg"><path clip-rule="evenodd" d="m19.7766 14.7057-10.22002 14.3846 11.01702-1.2172v7.3632l-20.5111 2.0804v-5.9164l9.9771-14.1822-9.724841 1.161v-7.1701l19.461841-2.56667zm67.0302 6.0692c1.6815-.5945 2.9525-1.6876 3.81-3.2783.8669-1.6333 1.0653-3.2876.5924-4.9612-.4772-1.6892-1.4893-2.9142-3.0329-3.6758-1.5148-.7329-3.1099-.78874-4.7844-.16984-1.6682.61657-2.9263 1.72174-3.7776 3.31554-.8407 1.6197-1.0247 3.2593-.5545 4.924.4658 1.6496 1.455 2.8568 2.9701 3.6246 1.5104.7383 3.1021.8135 4.7769.221zm-9.2452-18.03744c3.2489-2.318537 6.7892-3.132486 10.6183-2.422462 3.8624.729802 6.8673 2.789692 8.9955 6.175392 2.1196 3.37252 2.7334 7.07081 1.8458 11.07581-.8903 3.9646-3.004 7.049-6.3217 9.259-3.3016 2.1979-6.8227 2.8936-10.5687 2.1041-3.7308-.7977-6.613-2.827-8.6639-6.0905-2.0595-3.2771-2.7038-6.8591-1.929-10.7648.7888-3.91577 2.7904-7.02925 6.0237-9.33693zm-35.7621 3.08255v13.76349c0 1.6977-.5514 3.2116-1.6514 4.5409-1.0825 1.3231-2.3914 2.0684-3.9237 2.2379-1.5269.1682-2.8284-.2843-3.9077-1.3557-1.0766-1.0687-1.6135-2.4392-1.6135-4.114v-13.58119l-6.8829.92447v13.46952c0 3.6924 1.1922 6.7346 3.5887 9.1369 2.4101 2.386 5.3451 3.4093 8.8154 3.058 2.5522-.2583 4.4137-1.1509 5.5751-2.6815v.9516c0 1.6969-.5514 3.2031-1.6514 4.5149-1.0825 1.3069-2.3914 2.032-3.9237 2.1778 0 0-4.0608.5142-6.7755-2.4143l-4.2728 3.7006-1.3769 1.1928s4.3119 5.1051 11.1096 5.1245l.0043-.0078c.4311.0093.8665.0047 1.3113-.0337 3.4707-.2982 6.463-1.904 8.9661-4.831 2.5179-2.9122 3.7905-6.2886 3.8058-10.114v-26.62693zm27.5379 2.96648v-6.53098s-4.7304.0508-7.2023 1.62984h.0004c-.3586.20267-.6963.43984-1.0082.70808l.0183-1.25253-7.1253.94308v27.77002l6.7087-.5836.2214-14.952c.1366-1.7477 1.1469-7.07695 8.387-7.73191z" fill="#000" fill-rule="evenodd"/></svg>